HIERARCHY
ROOT Hips
{
	OFFSET -36.480297 -30.199697 87.527466
	CHANNELS 6 Xposition Yposition Zposition Zrotation Yrotation Xrotation
	JOINT Spine
	{
		OFFSET 0.000000 2.080109 8.814247
		CHANNELS 6 Xposition Yposition Zposition Zrotation Yrotation Xrotation
		JOINT Spine1
		{
			OFFSET 0.000000 0.000000 8.844139
			CHANNELS 6 Xposition Yposition Zposition Zrotation Yrotation Xrotation
			JOINT Spine2
			{
				OFFSET 0.000000 0.000002 11.682266
				CHANNELS 6 Xposition Yposition Zposition Zrotation Yrotation Xrotation
				JOINT Spine3
				{
					OFFSET 0.000000 0.000000 11.746704
					CHANNELS 6 Xposition Yposition Zposition Zrotation Yrotation Xrotation
					JOINT Neck
					{
						OFFSET 0.000000 0.000002 17.658264
						CHANNELS 6 Xposition Yposition Zposition Zrotation Yrotation Xrotation
						JOINT Neck1
						{
							OFFSET 0.000000 0.000000 5.101517
							CHANNELS 6 Xposition Yposition Zposition Zrotation Yrotation Xrotation
							JOINT Head
							{
								OFFSET 0.000000 0.000000 5.101517
								CHANNELS 6 Xposition Yposition Zposition Zrotation Yrotation Xrotation
								JOINT HeadEnd
								{
									OFFSET 0.000000 0.000002 11.655090
									CHANNELS 6 Xposition Yposition Zposition Zrotation Yrotation Xrotation
									End Site
									{
										OFFSET 0.000000 0.000000 0.100006
									}
								}
							}
						}
					}
					JOINT RightShoulder
					{
						OFFSET -2.625389 0.000002 11.175217
						CHANNELS 6 Xposition Yposition Zposition Zrotation Yrotation Xrotation
						JOINT RightArm
						{
							OFFSET 0.000000 0.000000 10.434723
							CHANNELS 6 Xposition Yposition Zposition Zrotation Yrotation Xrotation
							JOINT RightForeArm
							{
								OFFSET 0.000000 0.000002 29.628418
								CHANNELS 6 Xposition Yposition Zposition Zrotation Yrotation Xrotation
								JOINT RightHand
								{
									OFFSET 0.000000 0.000002 22.857605
									CHANNELS 6 Xposition Yposition Zposition Zrotation Yrotation Xrotation
									JOINT RightHandThumb1
									{
										OFFSET -2.867321 -2.944292 3.959564
										CHANNELS 6 Xposition Yposition Zposition Zrotation Yrotation Xrotation
										JOINT RightHandThumb2
										{
											OFFSET 0.000000 0.000000 3.350403
											CHANNELS 6 Xposition Yposition Zposition Zrotation Yrotation Xrotation
											JOINT RightHandThumb3
											{
												OFFSET 0.000000 0.000000 3.756516
												CHANNELS 6 Xposition Yposition Zposition Zrotation Yrotation Xrotation
												JOINT RightHandThumb4
												{
													OFFSET 0.000000 0.000002 3.147339
													CHANNELS 6 Xposition Yposition Zposition Zrotation Yrotation Xrotation
													End Site
													{
														OFFSET 0.000000 0.000000 0.100006
													}
												}
											}
										}
									}
									JOINT RightHandIndex1
									{
										OFFSET -0.086754 -2.345280 10.030899
										CHANNELS 6 Xposition Yposition Zposition Zrotation Yrotation Xrotation
										JOINT RightHandIndex2
										{
											OFFSET 0.000000 0.000002 4.061096
											CHANNELS 6 Xposition Yposition Zposition Zrotation Yrotation Xrotation
											JOINT RightHandIndex3
											{
												OFFSET 0.000000 0.000000 3.248871
												CHANNELS 6 Xposition Yposition Zposition Zrotation Yrotation Xrotation
												JOINT RightHandIndex4
												{
													OFFSET 0.000000 0.000000 2.639709
													CHANNELS 6 Xposition Yposition Zposition Zrotation Yrotation Xrotation
													End Site
													{
														OFFSET 0.000000 0.000000 0.100006
													}
												}
											}
										}
									}
									JOINT RightHandMiddle1
									{
										OFFSET 0.104103 -0.006767 9.502945
										CHANNELS 6 Xposition Yposition Zposition Zrotation Yrotation Xrotation
										JOINT RightHandMiddle2
										{
											OFFSET 0.000000 0.000002 4.568726
											CHANNELS 6 Xposition Yposition Zposition Zrotation Yrotation Xrotation
											JOINT RightHandMiddle3
											{
												OFFSET 0.000000 0.000000 3.654984
												CHANNELS 6 Xposition Yposition Zposition Zrotation Yrotation Xrotation
												JOINT RightHandMiddle4
												{
													OFFSET 0.000000 0.000000 2.741241
													CHANNELS 6 Xposition Yposition Zposition Zrotation Yrotation Xrotation
													End Site
													{
														OFFSET 0.000000 0.000000 0.100006
													}
												}
											}
										}
									}
									JOINT RightHandRing1
									{
										OFFSET 0.086754 2.267443 8.921707
										CHANNELS 6 Xposition Yposition Zposition Zrotation Yrotation Xrotation
										JOINT RightHandRing2
										{
											OFFSET 0.000000 0.000002 4.061096
											CHANNELS 6 Xposition Yposition Zposition Zrotation Yrotation Xrotation
											JOINT RightHandRing3
											{
												OFFSET 0.000000 0.000000 3.654984
												CHANNELS 6 Xposition Yposition Zposition Zrotation Yrotation Xrotation
												JOINT RightHandRing4
												{
													OFFSET 0.000000 0.000000 2.741241
													CHANNELS 6 Xposition Yposition Zposition Zrotation Yrotation Xrotation
													End Site
													{
														OFFSET 0.000000 0.000000 0.100006
													}
												}
											}
										}
									}
									JOINT RightHandPinky1
									{
										OFFSET -0.173504 4.467199 7.976990
										CHANNELS 6 Xposition Yposition Zposition Zrotation Yrotation Xrotation
										JOINT RightHandPinky2
										{
											OFFSET 0.000000 0.000000 3.350403
											CHANNELS 6 Xposition Yposition Zposition Zrotation Yrotation Xrotation
											JOINT RightHandPinky3
											{
												OFFSET 0.000000 0.000002 2.842758
												CHANNELS 6 Xposition Yposition Zposition Zrotation Yrotation Xrotation
												JOINT RightHandPinky4
												{
													OFFSET 0.000000 0.000000 2.639709
													CHANNELS 6 Xposition Yposition Zposition Zrotation Yrotation Xrotation
													End Site
													{
														OFFSET 0.000000 0.000000 0.100006
													}
												}
											}
										}
									}
									JOINT RightForeArmEnd
									{
										OFFSET 0.000000 0.000000 0.000000
										CHANNELS 6 Xposition Yposition Zposition Zrotation Yrotation Xrotation
										End Site
										{
											OFFSET 0.000000 0.000000 0.100006
										}
									}
								}
								JOINT RightArmEnd
								{
									OFFSET 0.000000 0.000000 0.000000
									CHANNELS 6 Xposition Yposition Zposition Zrotation Yrotation Xrotation
									End Site
									{
										OFFSET 0.000000 0.000000 0.100006
									}
								}
							}
						}
					}
					JOINT LeftShoulder
					{
						OFFSET 2.625389 0.000002 11.175217
						CHANNELS 6 Xposition Yposition Zposition Zrotation Yrotation Xrotation
						JOINT LeftArm
						{
							OFFSET 0.000000 0.000000 10.813629
							CHANNELS 6 Xposition Yposition Zposition Zrotation Yrotation Xrotation
							JOINT LeftForeArm
							{
								OFFSET 0.000000 0.000002 28.724777
								CHANNELS 6 Xposition Yposition Zposition Zrotation Yrotation Xrotation
								JOINT LeftHand
								{
									OFFSET 0.644382 0.328873 25.716171
									CHANNELS 6 Xposition Yposition Zposition Zrotation Yrotation Xrotation
									JOINT LeftHandThumb1
									{
										OFFSET 2.867323 -2.944290 3.959564
										CHANNELS 6 Xposition Yposition Zposition Zrotation Yrotation Xrotation
										JOINT LeftHandThumb2
										{
											OFFSET 0.000000 0.000000 3.350403
											CHANNELS 6 Xposition Yposition Zposition Zrotation Yrotation Xrotation
											JOINT LeftHandThumb3
											{
												OFFSET 0.000000 0.000002 3.756516
												CHANNELS 6 Xposition Yposition Zposition Zrotation Yrotation Xrotation
												JOINT LeftHandThumb4
												{
													OFFSET 0.000000 0.000000 3.100006
													CHANNELS 6 Xposition Yposition Zposition Zrotation Yrotation Xrotation
													End Site
													{
														OFFSET 0.000000 0.000000 0.100006
													}
												}
											}
										}
									}
									JOINT LeftHandIndex1
									{
										OFFSET 0.086754 -2.345278 10.030899
										CHANNELS 6 Xposition Yposition Zposition Zrotation Yrotation Xrotation
										JOINT LeftHandIndex2
										{
											OFFSET 0.000000 0.000000 4.061096
											CHANNELS 6 Xposition Yposition Zposition Zrotation Yrotation Xrotation
											JOINT LeftHandIndex3
											{
												OFFSET 0.000000 0.000000 3.248871
												CHANNELS 6 Xposition Yposition Zposition Zrotation Yrotation Xrotation
												JOINT LeftHandIndex4
												{
													OFFSET 0.000000 0.000000 2.639709
													CHANNELS 6 Xposition Yposition Zposition Zrotation Yrotation Xrotation
													End Site
													{
														OFFSET 0.000000 0.000000 0.100006
													}
												}
											}
										}
									}
									JOINT LeftHandMiddle1
									{
										OFFSET -0.104103 -0.006767 9.502945
										CHANNELS 6 Xposition Yposition Zposition Zrotation Yrotation Xrotation
										JOINT LeftHandMiddle2
										{
											OFFSET 0.000000 0.000002 4.568726
											CHANNELS 6 Xposition Yposition Zposition Zrotation Yrotation Xrotation
											JOINT LeftHandMiddle3
											{
												OFFSET 0.000000 0.000000 3.654984
												CHANNELS 6 Xposition Yposition Zposition Zrotation Yrotation Xrotation
												JOINT LeftHandMiddle4
												{
													OFFSET 0.000000 0.000000 2.741241
													CHANNELS 6 Xposition Yposition Zposition Zrotation Yrotation Xrotation
													End Site
													{
														OFFSET 0.000000 0.000000 0.100006
													}
												}
											}
										}
									}
									JOINT LeftHandRing1
									{
										OFFSET -0.086754 2.267443 8.921707
										CHANNELS 6 Xposition Yposition Zposition Zrotation Yrotation Xrotation
										JOINT LeftHandRing2
										{
											OFFSET 0.000000 0.000002 4.061096
											CHANNELS 6 Xposition Yposition Zposition Zrotation Yrotation Xrotation
											JOINT LeftHandRing3
											{
												OFFSET 0.000000 0.000000 3.654984
												CHANNELS 6 Xposition Yposition Zposition Zrotation Yrotation Xrotation
												JOINT LeftHandRing4
												{
													OFFSET 0.000000 0.000000 2.741241
													CHANNELS 6 Xposition Yposition Zposition Zrotation Yrotation Xrotation
													End Site
													{
														OFFSET 0.000000 0.000000 0.100006
													}
												}
											}
										}
									}
									JOINT LeftHandPinky1
									{
										OFFSET 0.173504 4.467199 7.976990
										CHANNELS 6 Xposition Yposition Zposition Zrotation Yrotation Xrotation
										JOINT LeftHandPinky2
										{
											OFFSET 0.000000 0.000002 3.350403
											CHANNELS 6 Xposition Yposition Zposition Zrotation Yrotation Xrotation
											JOINT LeftHandPinky3
											{
												OFFSET 0.000000 0.000000 2.842758
												CHANNELS 6 Xposition Yposition Zposition Zrotation Yrotation Xrotation
												JOINT LeftHandPinky4
												{
													OFFSET 0.000000 0.000000 2.639709
													CHANNELS 6 Xposition Yposition Zposition Zrotation Yrotation Xrotation
													End Site
													{
														OFFSET 0.000000 0.000000 0.100006
													}
												}
											}
										}
									}
									JOINT LeftForeArmEnd
									{
										OFFSET 0.000000 0.000000 0.000000
										CHANNELS 6 Xposition Yposition Zposition Zrotation Yrotation Xrotation
										End Site
										{
											OFFSET 0.000000 0.000000 0.100006
										}
									}
								}
								JOINT LeftArmEnd
								{
									OFFSET 0.000000 0.000000 0.000000
									CHANNELS 6 Xposition Yposition Zposition Zrotation Yrotation Xrotation
									End Site
									{
										OFFSET 0.000000 0.000000 0.100006
									}
								}
							}
						}
					}
				}
			}
		}
	}
	JOINT RightUpLeg
	{
		OFFSET -11.289944 0.000000 0.000000
		CHANNELS 6 Xposition Yposition Zposition Zrotation Yrotation Xrotation
		JOINT RightLeg
		{
			OFFSET 0.000000 -0.000002 -38.200321
			CHANNELS 6 Xposition Yposition Zposition Zrotation Yrotation Xrotation
			JOINT RightFoot
			{
				OFFSET 0.000000 -0.000004 -39.900856
				CHANNELS 6 Xposition Yposition Zposition Zrotation Yrotation Xrotation
				JOINT RightToeBase
				{
					OFFSET 0.000000 -15.261639 0.000002
					CHANNELS 6 Xposition Yposition Zposition Zrotation Yrotation Xrotation
					JOINT RightToeBaseEnd
					{
						OFFSET 0.000000 -7.370708 0.000000
						CHANNELS 6 Xposition Yposition Zposition Zrotation Yrotation Xrotation
						End Site
						{
							OFFSET 0.000000 0.000000 0.100000
						}
					}
				}
				JOINT RightLegEnd
				{
					OFFSET 0.000000 0.000000 0.000000
					CHANNELS 6 Xposition Yposition Zposition Zrotation Yrotation Xrotation
					End Site
					{
						OFFSET 0.000000 0.000000 0.100000
					}
				}
			}
			JOINT RightUpLegEnd
			{
				OFFSET 0.000000 0.000000 0.000000
				CHANNELS 6 Xposition Yposition Zposition Zrotation Yrotation Xrotation
				End Site
				{
					OFFSET 0.000000 0.000000 0.099998
				}
			}
		}
	}
	JOINT LeftUpLeg
	{
		OFFSET 11.315662 0.000000 0.000000
		CHANNELS 6 Xposition Yposition Zposition Zrotation Yrotation Xrotation
		JOINT LeftLeg
		{
			OFFSET 0.000000 -0.000002 -38.200321
			CHANNELS 6 Xposition Yposition Zposition Zrotation Yrotation Xrotation
			JOINT LeftFoot
			{
				OFFSET 0.000000 -0.000004 -39.900856
				CHANNELS 6 Xposition Yposition Zposition Zrotation Yrotation Xrotation
				JOINT LeftToeBase
				{
					OFFSET 0.000000 -15.261639 0.000002
					CHANNELS 6 Xposition Yposition Zposition Zrotation Yrotation Xrotation
					JOINT LeftToeBaseEnd
					{
						OFFSET 0.000000 -7.539997 0.000000
						CHANNELS 6 Xposition Yposition Zposition Zrotation Yrotation Xrotation
						End Site
						{
							OFFSET 0.000000 0.000000 0.100000
						}
					}
				}
				JOINT LeftLegEnd
				{
					OFFSET 0.000000 0.000000 0.000000
					CHANNELS 6 Xposition Yposition Zposition Zrotation Yrotation Xrotation
					End Site
					{
						OFFSET 0.000000 0.000000 0.100000
					}
				}
			}
			JOINT LeftUpLegEnd
			{
				OFFSET 0.000000 0.000000 0.000000
				CHANNELS 6 Xposition Yposition Zposition Zrotation Yrotation Xrotation
				End Site
				{
					OFFSET 0.000000 0.000000 0.099998
				}
			}
		}
	}
}
MOTION
Frames: 2
Frame Time: 0.016667
5.418930 -13.160769 81.864006 28.513128 5.579156 -0.278202 -0.000002 2.080106 8.814260 -0.462635 -1.690059 13.154548 0.000001 0.000004 8.844148 0.601380 -0.070889 11.991759 -0.000000 -0.000003 11.682264 0.149569 1.203626 12.176504 -0.000004 -0.000006 11.746727 0.479073 3.753479 7.638982 -0.000000 0.000016 17.658264 19.991516 19.169377 36.745673 -0.000004 -0.000002 5.101517 5.495689 2.169112 4.314896 -0.000004 0.000004 5.101535 3.193319 1.254390 -19.358260 -0.000003 -0.000003 11.655122 0.000001 0.000002 0.000000 -2.625408 0.000004 11.175218 4.524955 -87.906563 0.657689 -0.000009 0.000034 10.434729 -111.857858 -35.788982 49.690354 0.000008 -0.000025 29.628424 7.892563 0.728351 109.774957 -0.000008 0.000009 22.857611 105.985275 18.426189 1.520624 -2.867325 -2.944295 3.959560 32.267361 -14.071125 56.625618 -0.000000 0.000001 3.350410 -5.725512 4.732079 -10.867966 -0.000003 0.000003 3.756520 -3.879373 3.402840 -7.492681 0.000001 0.000005 3.147353 0.000001 -0.000001 0.000000 -0.086758 -2.345281 10.030926 -6.955614 10.076184 9.306691 0.000002 -0.000001 4.061091 0.531866 0.000008 -0.024373 0.000001 -0.000004 3.248873 0.040868 -0.000000 -0.021758 0.000001 -0.000001 2.639724 -0.000002 -0.000001 0.000001 0.104099 -0.006772 9.502976 -2.567405 5.511359 2.668064 -0.000007 0.000007 4.568717 0.529287 -0.000007 -0.004935 0.000001 -0.000003 3.654997 0.022399 -0.000009 -0.004205 -0.000005 -0.000000 2.741256 0.000002 -0.000001 -0.000000 0.086749 2.267442 8.921725 4.216734 -0.605510 -8.938863 -0.000006 -0.000003 4.061115 -0.999609 -0.923852 -0.056500 -0.000008 0.000002 3.654980 0.003789 -0.923855 -0.056557 -0.000005 -0.000001 2.741226 0.000000 0.000001 0.000000 -0.173516 4.467196 7.976999 10.195060 -4.967043 -24.415351 -0.000000 0.000009 3.350407 -1.913570 -7.113884 -1.390087 -0.000013 0.000004 2.842774 0.086420 -7.113900 -1.390104 -0.000001 -0.000001 2.639711 -0.000001 0.000002 -0.000002 -0.000007 -0.000000 -0.000019 0.000002 -0.000002 0.000004 -0.000013 -0.000004 0.000016 0.000000 -0.000000 -0.000001 2.625421 0.000013 11.175222 -3.589974 75.300063 -0.868982 0.000039 -0.000004 10.813640 63.153862 26.867519 65.475498 -0.000004 0.000002 28.724766 -6.019973 0.671733 65.740612 0.644386 0.328878 25.716217 -10.768832 -25.818211 -33.790356 2.867313 -2.944297 3.959582 -32.577072 13.119613 58.269409 0.000001 -0.000006 3.350415 3.715539 -3.276670 -7.187966 0.000004 0.000009 3.756537 2.536301 -2.325377 -4.968070 0.000001 0.000002 3.100006 -0.000000 0.000000 0.000001 0.086747 -2.345277 10.030916 -10.674039 -12.723087 -6.638450 0.000002 -0.000001 4.061108 0.951135 0.144528 0.001683 0.000000 -0.000001 3.248882 0.422061 -0.080272 0.005308 -0.000006 0.000002 2.639708 0.000000 -0.000001 0.000001 -0.104108 -0.006762 9.502977 -5.222145 -10.396479 -10.675190 0.000005 0.000002 4.568719 1.097334 0.000076 -0.000148 -0.000008 -0.000002 3.654988 0.512373 -0.000011 -0.002570 0.000004 -0.000002 2.741272 0.000001 -0.000001 -0.000001 -0.086760 2.267451 8.921719 3.354864 -4.601186 -14.877863 -0.000003 0.000004 4.061116 -1.081832 0.000080 0.000026 -0.000002 -0.000004 3.655002 -0.698366 0.000008 0.013156 0.000001 -0.000001 2.741256 -0.000000 -0.000001 0.000001 0.173501 4.467200 7.976998 12.238653 3.002167 -17.355446 0.000000 0.000001 3.350439 -2.216321 -0.000002 -0.061040 0.000002 -0.000000 2.842740 -0.175733 -0.000006 -0.051656 0.000001 0.000002 2.639693 0.000001 -0.000001 0.000002 -0.000008 0.000000 0.000047 -0.000001 0.000001 -0.000001 -0.000002 -0.000004 0.000013 -0.000005 -0.000003 0.000002 -11.289947 0.000006 0.000008 -17.394735 2.251213 -16.023981 -0.000004 -0.000002 -38.200321 -0.218625 0.184729 40.357740 0.000002 -0.000006 -39.900856 -13.917350 -5.602611 7.769493 0.000004 -15.261631 0.000000 0.714389 -1.874059 -27.677919 -0.000004 -7.370708 -0.000000 -0.000001 -0.000000 0.000000 0.000004 -0.000001 -0.000000 -0.000000 0.000000 -0.000001 -0.000001 -0.000003 0.000000 0.000001 0.000000 -0.000001 11.315664 0.000005 -0.000003 11.760830 -12.881228 -29.581833 0.000004 0.000004 -38.200325 0.603055 -0.701202 49.343814 0.000000 -0.000003 -39.900852 1.776942 2.269568 7.418597 -0.000004 -15.261637 0.000003 -0.090765 -0.297209 -29.940728 0.000006 -7.539995 0.000000 0.000003 0.000000 0.000000 -0.000001 0.000006 -0.000002 0.000001 -0.000001 0.000002 -0.000000 0.000002 -0.000000 -0.000001 0.000001 0.000001 
5.401623 -13.168430 81.848892 28.617072 5.604963 -0.312066 -0.000000 2.080103 8.814244 -0.444080 -1.706079 13.117716 0.000001 0.000001 8.844142 0.608539 -0.071366 11.987768 0.000002 0.000001 11.682262 0.246564 1.191705 12.264406 -0.000002 -0.000003 11.746701 0.507367 3.735529 7.664001 0.000003 -0.000011 17.658264 20.084808 19.208307 36.774336 0.000000 -0.000009 5.101536 5.488066 2.149716 4.325854 -0.000007 0.000020 5.101524 3.211515 1.236795 -19.402605 0.000008 -0.000004 11.655089 0.000000 -0.000001 0.000000 -2.625406 -0.000003 11.175205 4.590541 -88.154574 0.748618 -0.000006 0.000021 10.434729 -111.880315 -35.338678 49.988976 0.000004 -0.000017 29.628429 7.986101 0.661254 110.933979 -0.000004 0.000018 22.857628 107.277792 22.166821 3.360864 -2.867314 -2.944283 3.959562 32.220635 -14.232643 56.352845 0.000000 0.000010 3.350400 -6.069819 4.961966 -11.486689 0.000000 0.000005 3.756509 -4.107952 3.576632 -7.916194 -0.000002 0.000004 3.147338 0.000000 -0.000002 -0.000002 -0.086757 -2.345289 10.030917 -7.145931 8.860177 9.797771 0.000002 0.000004 4.061094 0.533444 0.000008 -0.025239 0.000010 0.000000 3.248873 0.042463 0.000001 -0.022531 -0.000000 0.000003 2.639708 0.000001 -0.000002 0.000001 0.104097 -0.006773 9.502976 -2.776463 4.317005 3.131237 0.000007 0.000006 4.568710 0.530794 -0.000067 -0.004662 0.000006 -0.000003 3.654966 0.023710 -0.000020 -0.003971 -0.000001 -0.000004 2.741244 -0.000001 0.000002 -0.000002 0.086749 2.267442 8.921742 4.034842 -1.718659 -8.496708 -0.000004 -0.000007 4.061119 -0.998593 -1.686936 -0.103209 0.000004 0.000002 3.655004 0.004091 -1.686922 -0.103284 0.000004 -0.000010 2.741255 -0.000002 -0.000001 0.000002 -0.173512 4.467198 7.976987 10.152064 -5.769122 -23.864440 -0.000002 0.000011 3.350422 -1.901764 -7.581627 -1.482497 -0.000002 -0.000011 2.842800 0.098218 -7.581320 -1.482452 -0.000004 -0.000008 2.639697 -0.000001 0.000004 -0.000000 -0.000005 -0.000001 -0.000000 0.000000 -0.000002 -0.000002 -0.000007 0.000004 0.000015 0.000003 -0.000002 -0.000003 2.625396 -0.000003 11.175212 -3.612238 75.287884 -0.868097 0.000024 -0.000008 10.813641 63.062911 27.016526 65.517722 -0.000006 0.000003 28.724792 -5.953961 0.665140 65.800246 0.644382 0.328879 25.716223 -10.533025 -25.688756 -33.832963 2.867323 -2.944294 3.959559 -32.577069 13.119623 58.269375 0.000000 -0.000001 3.350415 3.715537 -3.276676 -7.187914 -0.000001 0.000001 3.756531 2.536299 -2.325370 -4.968079 0.000004 -0.000006 3.100008 0.000001 0.000000 -0.000003 0.086746 -2.345274 10.030894 -10.693687 -12.736924 -6.728141 0.000002 -0.000000 4.061100 0.951235 0.000020 -0.000712 0.000001 -0.000000 3.248877 0.422159 -0.000001 0.005876 0.000002 -0.000003 2.639711 -0.000000 0.000001 -0.000001 -0.104105 -0.006766 9.502937 -5.233119 -10.463787 -10.759384 0.000003 -0.000000 4.568745 1.097584 0.000096 -0.000144 -0.000001 -0.000001 3.655004 0.512591 -0.000009 -0.002536 0.000002 0.000003 2.741287 0.000000 0.000000 0.000000 -0.086757 2.267448 8.921715 3.344407 -4.650267 -14.941121 0.000005 0.000002 4.061097 -1.079890 0.000096 0.000022 0.000001 -0.000000 3.654992 -0.698305 -0.000000 0.013031 -0.000001 0.000001 2.741271 -0.000000 -0.000000 0.000002 0.173504 4.467203 7.976987 12.230036 2.972004 -17.390328 0.000005 0.000000 3.350444 -2.216252 -0.000010 -0.063728 -0.000001 -0.000003 2.842758 -0.175781 -0.000035 -0.053913 -0.000003 0.000004 2.639694 -0.000000 -0.000000 0.000000 -0.000003 -0.000001 0.000031 -0.000002 0.000000 -0.000000 -0.000000 0.000004 0.000048 -0.000001 0.000001 -0.000002 -11.289946 0.000002 0.000003 -17.430679 2.226570 -15.956008 0.000002 0.000000 -38.200314 -0.219464 0.184793 40.370356 0.000002 -0.000003 -39.900852 -13.975492 -5.627919 7.718918 -0.000001 -15.261641 -0.000000 0.717452 -1.876746 -27.643387 -0.000001 -7.370705 -0.000001 -0.000000 0.000001 0.000000 0.000000 -0.000005 0.000000 -0.000000 0.000001 -0.000001 0.000001 -0.000004 -0.000001 0.000000 -0.000001 -0.000000 11.315664 -0.000001 -0.000005 11.722767 -12.922025 -29.607487 0.000003 0.000002 -38.200321 0.604584 -0.705301 49.396734 0.000001 -0.000003 -39.900856 1.702508 2.252001 7.405977 -0.000002 -15.261635 0.000006 -0.085257 -0.309299 -29.936975 0.000003 -7.539993 -0.000001 -0.000000 -0.000000 0.000000 0.000003 0.000005 -0.000000 -0.000001 -0.000001 -0.000000 -0.000000 -0.000001 -0.000003 0.000000 0.000002 -0.000000 
